<?xml version="1.0" encoding="UTF-8" standalone="no"?>
<!-- Created with Vectornator (http://vectornator.io/) -->
<svg height="100%" stroke-miterlimit="10" style="fill-rule:nonzero;clip-rule:evenodd;stroke-linecap:round;stroke-linejoin:round;" version="1.1" viewBox="0 0 2880 994.191" width="100%" xml:space="preserve" xmlns="http://www.w3.org/2000/svg" xmlns:xlink="http://www.w3.org/1999/xlink">
<defs>
<filter color-interpolation-filters="sRGB" filterUnits="userSpaceOnUse" height="275.686" id="Filter" width="155.23" x="593.61" y="313.06">
<feDropShadow dx="-11.2116" dy="14.0421" flood-color="#37587a" flood-opacity="0.851077" in="SourceGraphic" result="Shadow" stdDeviation="3.5"/>
</filter>
<filter color-interpolation-filters="sRGB" filterUnits="userSpaceOnUse" height="275.686" id="Filter_2" width="144.257" x="757.585" y="313.06">
<feDropShadow dx="-11.2116" dy="14.0421" flood-color="#37587a" flood-opacity="0.851077" in="SourceGraphic" result="Shadow" stdDeviation="3.5"/>
</filter>
<filter color-interpolation-filters="sRGB" filterUnits="userSpaceOnUse" height="275.686" id="Filter_3" width="127.89" x="913.131" y="313.06">
<feDropShadow dx="-11.2116" dy="14.0421" flood-color="#37587a" flood-opacity="0.851077" in="SourceGraphic" result="Shadow" stdDeviation="3.5"/>
</filter>
<filter color-interpolation-filters="sRGB" filterUnits="userSpaceOnUse" height="275.686" id="Filter_4" width="153.411" x="1062.56" y="313.06">
<feDropShadow dx="-11.2116" dy="14.0421" flood-color="#37587a" flood-opacity="0.851077" in="SourceGraphic" result="Shadow" stdDeviation="3.5"/>
</filter>
<filter color-interpolation-filters="sRGB" filterUnits="userSpaceOnUse" height="275.686" id="Filter_5" width="149.899" x="1226.61" y="313.06">
<feDropShadow dx="-11.2116" dy="14.0421" flood-color="#37587a" flood-opacity="0.851077" in="SourceGraphic" result="Shadow" stdDeviation="3.5"/>
</filter>
<filter color-interpolation-filters="sRGB" filterUnits="userSpaceOnUse" height="275.686" id="Filter_6" width="223.987" x="1485.32" y="313.06">
<feDropShadow dx="-11.2116" dy="14.0421" flood-color="#37587a" flood-opacity="0.851077" in="SourceGraphic" result="Shadow" stdDeviation="3.5"/>
</filter>
<filter color-interpolation-filters="sRGB" filterUnits="userSpaceOnUse" height="275.686" id="Filter_7" width="152.687" x="1719.41" y="313.06">
<feDropShadow dx="-11.2116" dy="14.0421" flood-color="#37587a" flood-opacity="0.851077" in="SourceGraphic" result="Shadow" stdDeviation="3.5"/>
</filter>
<filter color-interpolation-filters="sRGB" filterUnits="userSpaceOnUse" height="275.686" id="Filter_8" width="153.411" x="1872.65" y="313.06">
<feDropShadow dx="-11.2116" dy="14.0421" flood-color="#37587a" flood-opacity="0.851077" in="SourceGraphic" result="Shadow" stdDeviation="3.5"/>
</filter>
<filter color-interpolation-filters="sRGB" filterUnits="userSpaceOnUse" height="275.686" id="Filter_9" width="127.89" x="2055.78" y="313.06">
<feDropShadow dx="-11.2116" dy="14.0421" flood-color="#37587a" flood-opacity="0.851077" in="SourceGraphic" result="Shadow" stdDeviation="3.5"/>
</filter>
<filter color-interpolation-filters="sRGB" filterUnits="userSpaceOnUse" height="275.686" id="Filter_10" width="159.045" x="2183.27" y="313.06">
<feDropShadow dx="-11.2116" dy="14.0421" flood-color="#37587a" flood-opacity="0.851077" in="SourceGraphic" result="Shadow" stdDeviation="3.5"/>
</filter>
<filter color-interpolation-filters="sRGB" filterUnits="userSpaceOnUse" height="275.686" id="Filter_11" width="152.687" x="2352.41" y="313.06">
<feDropShadow dx="-11.2116" dy="14.0421" flood-color="#37587a" flood-opacity="0.851077" in="SourceGraphic" result="Shadow" stdDeviation="3.5"/>
</filter>
<filter color-interpolation-filters="sRGB" filterUnits="userSpaceOnUse" height="275.686" id="Filter_12" width="149.899" x="2508.51" y="313.06">
<feDropShadow dx="-11.2116" dy="14.0421" flood-color="#37587a" flood-opacity="0.851077" in="SourceGraphic" result="Shadow" stdDeviation="3.5"/>
</filter>
<filter color-interpolation-filters="sRGB" filterUnits="userSpaceOnUse" height="785.438" id="Filter_13" width="747.403" x="200.494" y="114.897">
<feDropShadow dx="-11.2116" dy="14.0421" flood-color="#37587a" flood-opacity="0.851077" in="SourceGraphic" result="Shadow" stdDeviation="3.5"/>
</filter>
</defs>
<g id="Layer-1">
<path d="M726.268 497.446L723.725 519.382L723.089 522.243C721.394 532.204 717.208 540.946 710.532 548.47C703.856 555.994 695.855 561.451 686.53 564.843C683.986 565.69 681.39 566.379 678.741 566.909C676.092 567.439 673.389 567.704 670.634 567.704L670.316 567.704L669.363 567.704L643.294 567.704L611.821 567.704L615.636 536.231L647.427 536.231L673.813 536.231C678.264 536.019 682.291 534.323 685.894 531.144C689.497 527.965 691.51 524.15 691.934 519.7L697.974 469.788C698.61 465.337 697.55 461.47 694.795 458.184C692.04 454.899 688.331 453.257 683.668 453.257L674.131 453.257L673.178 453.257L672.86 453.257C666.501 453.045 660.726 451.72 655.534 449.283C650.341 446.846 645.89 443.614 642.182 439.587C638.473 435.56 635.664 430.791 633.757 425.281C631.85 419.771 631.108 413.942 631.532 407.796L631.85 404.935L637.254 361.064C638.526 350.679 642.605 341.406 649.493 333.247C656.381 325.087 664.7 319.312 674.449 315.921C679.748 314.013 685.364 313.06 691.298 313.06L717.367 313.06L748.84 313.06L745.025 344.532L713.552 344.532L687.483 344.532C682.821 344.532 678.688 346.122 675.085 349.301C671.482 352.48 669.363 356.401 668.727 361.064L663.322 404.935C662.899 409.598 664.064 413.518 666.819 416.698C669.575 419.877 673.178 421.572 677.628 421.784L687.483 421.784L687.483 421.466C687.483 421.466 687.589 421.572 687.801 421.784C693.524 421.784 698.822 422.738 703.697 424.645C712.598 428.036 719.486 433.812 724.361 441.971C729.235 450.131 731.037 459.403 729.765 469.788L726.904 491.724L726.268 497.446Z" fill="#0be0de" fill-rule="evenodd" filter="url(#Filter)" stroke="none"/>
<path d="M875.379 315.921C884.28 319.312 891.168 325.087 896.043 333.247C900.917 341.406 902.719 350.679 901.447 361.064L882.055 519.382C880.783 529.979 876.703 539.357 869.815 547.517C862.927 555.676 854.609 561.451 844.86 564.843C839.349 566.75 833.733 567.704 828.011 567.704L818.473 567.704C812.751 567.704 807.347 566.75 802.26 564.843C793.359 561.451 786.471 555.676 781.596 547.517C776.721 539.357 774.92 529.979 776.192 519.382L795.584 361.064C796.856 350.679 800.988 341.406 807.982 333.247C814.976 325.087 823.242 319.312 832.779 315.921C838.078 314.013 843.8 313.06 849.946 313.06L859.166 313.06C865.1 313.06 870.504 314.013 875.379 315.921ZM869.974 361.064C870.398 356.401 869.233 352.48 866.477 349.301C863.722 346.122 860.013 344.532 855.351 344.532L845.813 344.532C841.363 344.532 837.283 346.122 833.574 349.301C829.865 352.48 827.799 356.401 827.375 361.064L807.982 519.382C807.347 524.044 808.459 528.018 811.32 531.303C814.182 534.588 817.838 536.231 822.288 536.231L831.826 536.231C836.488 536.231 840.621 534.588 844.224 531.303C847.827 528.018 849.946 524.044 850.582 519.382L869.974 361.064Z" fill="#0be0de" fill-rule="evenodd" filter="url(#Filter_2)" stroke="none"/>
<path d="M931.343 567.704L962.498 313.06L962.498 313.06L994.288 313.06L966.948 536.231L1041.02 536.231L1037.21 567.704L931.343 567.704Z" fill="#0be0de" fill-rule="evenodd" filter="url(#Filter_3)" stroke="none"/>
<path d="M1173.28 313.06C1179.85 313.06 1185.95 314.331 1191.56 316.874C1197.18 319.418 1201.89 322.809 1205.71 327.048C1209.52 331.286 1212.33 336.373 1214.13 342.307C1215.94 348.241 1216.41 354.494 1215.56 361.064L1190.13 567.704L1158.66 567.704L1162.47 536.231L1166.29 504.122L1123.69 504.122L1119.87 536.231L1116.06 567.704L1084.27 567.704L1092.22 504.122L1080.77 504.122L1084.59 472.649L1096.03 472.649L1109.7 361.064C1110.55 354.494 1112.62 348.241 1115.9 342.307C1119.19 336.373 1123.26 331.286 1128.14 327.048C1133.01 322.809 1138.52 319.418 1144.67 316.874C1150.82 314.331 1157.18 313.06 1163.75 313.06L1173.28 313.06ZM1184.09 361.064C1184.52 356.401 1183.35 352.48 1180.59 349.301C1177.84 346.122 1174.13 344.532 1169.47 344.532L1159.93 344.532C1155.48 344.532 1151.4 346.122 1147.69 349.301C1143.98 352.48 1141.92 356.401 1141.49 361.064L1136.09 404.299L1127.82 472.649L1170.42 472.649L1178.69 404.299L1184.09 361.064Z" fill="#0be0de" fill-rule="evenodd" filter="url(#Filter_4)" stroke="none"/>
<path d="M1370.72 404.935C1369.87 411.293 1368.01 417.227 1365.15 422.738C1362.29 428.248 1358.63 433.123 1354.18 437.362C1357.57 441.6 1360.07 446.528 1361.65 452.144C1363.24 457.761 1363.62 463.642 1362.77 469.788L1350.69 567.704L1318.9 567.704L1323.03 536.231L1330.98 469.788C1331.61 465.125 1330.5 461.205 1327.64 458.026C1324.78 454.846 1321.12 453.257 1316.67 453.257L1290.6 453.257L1280.43 536.231L1276.3 567.704L1244.82 567.704L1258.81 453.257L1247.37 453.257L1251.18 421.784L1262.63 421.784L1275.98 313.06L1333.84 313.06C1340.41 313.06 1346.45 314.331 1351.96 316.874C1357.47 319.418 1362.13 322.809 1365.95 327.048C1369.76 331.286 1372.62 336.373 1374.53 342.307C1376.44 348.241 1376.97 354.494 1376.12 361.064L1370.72 404.935ZM1320.49 421.784C1324.94 421.784 1329.02 420.142 1332.73 416.856C1336.43 413.571 1338.5 409.598 1338.92 404.935L1339.24 404.299L1344.33 361.064C1344.96 356.401 1343.85 352.48 1340.99 349.301C1338.13 346.122 1334.37 344.532 1329.71 344.532L1303.95 344.532L1296.64 404.299L1294.42 421.784L1320.49 421.784Z" fill="#0be0de" fill-rule="evenodd" filter="url(#Filter_5)" stroke="none"/>
<path d="M1620.61 567.704C1614.26 567.704 1608.43 566.591 1603.13 564.366C1597.83 562.14 1593.38 559.12 1589.78 555.305C1584.9 559.12 1579.55 562.14 1573.72 564.366C1567.89 566.591 1561.91 567.704 1555.76 567.704L1546.22 567.704C1539.44 567.704 1533.3 566.432 1527.79 563.889C1522.28 561.346 1517.61 557.902 1513.8 553.557C1509.98 549.212 1507.17 544.126 1505.37 538.297C1503.57 532.469 1503.09 526.164 1503.94 519.382L1529.38 313.06L1560.85 313.06L1557.03 344.532L1553.22 376.323L1549.4 408.114L1540.82 476.464L1535.73 519.382C1535.1 524.044 1536.21 528.018 1539.07 531.303C1541.93 534.588 1545.59 536.231 1550.04 536.231L1559.58 536.231C1564.24 536.231 1568.37 534.641 1571.97 531.462C1575.58 528.283 1577.7 524.362 1578.33 519.7L1578.33 519.382L1592 408.114L1595.82 376.323L1603.45 313.06L1635.24 313.06L1627.29 376.323L1623.48 408.114L1609.81 519.382L1609.81 519.7C1609.38 524.362 1610.55 528.283 1613.3 531.462C1616.06 534.641 1619.77 536.231 1624.43 536.231L1633.97 536.231C1638.42 536.231 1642.5 534.588 1646.21 531.303C1649.92 528.018 1651.98 524.044 1652.41 519.382L1657.81 476.464L1666.08 408.114L1669.89 376.323L1674.02 344.532L1677.84 313.06L1709.31 313.06L1684.2 519.382C1683.35 526.164 1681.28 532.469 1678 538.297C1674.71 544.126 1670.63 549.212 1665.76 553.557C1660.88 557.902 1655.32 561.346 1649.07 563.889C1642.82 566.432 1636.4 567.704 1629.83 567.704L1620.61 567.704Z" fill="#0be0de" fill-rule="evenodd" filter="url(#Filter_6)" stroke="none"/>
<path d="M1872.09 313.06L1868.28 344.532L1865.42 344.532L1819.95 344.532L1810.74 344.532C1806.07 344.532 1801.94 346.122 1798.34 349.301C1794.73 352.48 1792.61 356.401 1791.98 361.064L1786.57 404.299L1784.67 421.466L1810.74 421.466L1828.54 421.466L1831.4 421.466L1827.58 453.257L1824.72 453.257L1806.92 453.257L1780.53 453.257L1774.49 503.804L1772.9 517.156L1772.59 519.382C1772.16 523.62 1773.01 527.223 1775.13 530.191C1777.25 533.158 1780.22 535.065 1784.03 535.913L1813.28 535.913L1844.75 535.913L1840.94 567.386L1840.94 567.704L1809.15 567.704L1783.08 567.704C1782.23 567.704 1781.44 567.704 1780.69 567.704C1779.95 567.704 1779.05 567.598 1777.99 567.386C1774.39 567.174 1770.68 566.326 1766.86 564.843C1757.96 561.451 1751.07 555.676 1746.2 547.517C1741.33 539.357 1739.52 529.979 1740.8 519.382L1742.7 504.122L1744.93 487.591L1746.52 472.649L1749.06 453.257L1737.62 453.257L1741.43 421.784L1752.88 421.784L1760.51 361.064C1761.78 350.679 1765.86 341.406 1772.75 333.247C1779.63 325.087 1787.85 319.312 1797.38 315.921C1802.68 314.013 1808.4 313.06 1814.55 313.06L1824.09 313.06L1872.09 313.06Z" fill="#0be0de" fill-rule="evenodd" filter="url(#Filter_7)" stroke="none"/>
<path d="M1983.37 313.06C1989.94 313.06 1996.03 314.331 2001.65 316.874C2007.27 319.418 2011.98 322.809 2015.8 327.048C2019.61 331.286 2022.42 336.373 2024.22 342.307C2026.02 348.241 2026.5 354.494 2025.65 361.064L2000.22 567.704L1968.75 567.704L1972.56 536.231L1976.38 504.122L1933.78 504.122L1929.96 536.231L1926.15 567.704L1894.36 567.704L1902.3 504.122L1890.86 504.122L1894.68 472.649L1906.12 472.649L1919.79 361.064C1920.64 354.494 1922.7 348.241 1925.99 342.307C1929.27 336.373 1933.35 331.286 1938.23 327.048C1943.1 322.809 1948.61 319.418 1954.76 316.874C1960.91 314.331 1967.26 313.06 1973.83 313.06L1983.37 313.06ZM1994.18 361.064C1994.6 356.401 1993.44 352.48 1990.68 349.301C1987.93 346.122 1984.22 344.532 1979.56 344.532L1970.02 344.532C1965.57 344.532 1961.49 346.122 1957.78 349.301C1954.07 352.48 1952 356.401 1951.58 361.064L1946.18 404.299L1937.91 472.649L1980.51 472.649L1988.78 404.299L1994.18 361.064Z" fill="#0be0de" fill-rule="evenodd" filter="url(#Filter_8)" stroke="none"/>
<path d="M2148.06 313.06L2183.67 313.06L2179.85 344.532L2176.99 344.532L2144.24 344.532L2116.9 567.704L2085.11 567.704L2112.77 344.532L2105.46 344.532L2073.99 344.532L2077.8 313.06L2098.15 313.06L2116.59 313.06L2135.34 313.06L2148.06 313.06Z" fill="#0be0de" fill-rule="evenodd" filter="url(#Filter_9)" stroke="none"/>
<path d="M2310.52 313.06L2342.31 313.06L2336.27 361.064L2310.84 567.704L2279.37 567.704L2283.18 536.231L2287 504.122L2244.4 504.122L2240.58 536.231L2236.77 567.704L2204.98 567.704L2212.92 504.122L2201.48 504.122L2205.3 472.649L2216.74 472.649L2230.41 361.064L2236.45 313.06L2267.92 313.06L2267.6 315.921L2262.2 361.064L2256.8 404.299L2248.53 472.649L2291.13 472.649L2299.4 404.299L2304.8 361.064L2310.2 315.921L2310.52 313.06Z" fill="#0be0de" fill-rule="evenodd" filter="url(#Filter_10)" stroke="none"/>
<path d="M2505.09 313.06L2501.28 344.532L2498.42 344.532L2452.96 344.532L2443.74 344.532C2439.08 344.532 2434.94 346.122 2431.34 349.301C2427.74 352.48 2425.62 356.401 2424.98 361.064L2419.58 404.299L2417.67 421.466L2443.74 421.466L2461.54 421.466L2464.4 421.466L2460.59 453.257L2457.73 453.257L2439.92 453.257L2413.54 453.257L2407.5 503.804L2405.91 517.156L2405.59 519.382C2405.17 523.62 2406.01 527.223 2408.13 530.191C2410.25 533.158 2413.22 535.065 2417.03 535.913L2446.28 535.913L2477.75 535.913L2473.94 567.386L2473.94 567.704L2442.15 567.704L2416.08 567.704C2415.23 567.704 2414.44 567.704 2413.7 567.704C2412.95 567.704 2412.05 567.598 2410.99 567.386C2407.39 567.174 2403.68 566.326 2399.87 564.843C2390.97 561.451 2384.08 555.676 2379.2 547.517C2374.33 539.357 2372.53 529.979 2373.8 519.382L2375.71 504.122L2377.93 487.591L2379.52 472.649L2382.06 453.257L2370.62 453.257L2374.43 421.784L2385.88 421.784L2393.51 361.064C2394.78 350.679 2398.86 341.406 2405.75 333.247C2412.64 325.087 2420.85 319.312 2430.39 315.921C2435.68 314.013 2441.41 313.06 2447.55 313.06L2457.09 313.06L2505.09 313.06Z" fill="#0be0de" fill-rule="evenodd" filter="url(#Filter_11)" stroke="none"/>
<path d="M2652.62 404.935C2651.77 411.293 2649.91 417.227 2647.05 422.738C2644.19 428.248 2640.53 433.123 2636.08 437.362C2639.48 441.6 2641.97 446.528 2643.55 452.144C2645.14 457.761 2645.52 463.642 2644.67 469.788L2632.59 567.704L2600.8 567.704L2604.93 536.231L2612.88 469.788C2613.51 465.125 2612.4 461.205 2609.54 458.026C2606.68 454.846 2603.02 453.257 2598.57 453.257L2572.5 453.257L2562.33 536.231L2558.2 567.704L2526.72 567.704L2540.71 453.257L2529.27 453.257L2533.08 421.784L2544.53 421.784L2557.88 313.06L2615.74 313.06C2622.31 313.06 2628.35 314.331 2633.86 316.874C2639.37 319.418 2644.03 322.809 2647.85 327.048C2651.66 331.286 2654.52 336.373 2656.43 342.307C2658.34 348.241 2658.87 354.494 2658.02 361.064L2652.62 404.935ZM2602.39 421.784C2606.84 421.784 2610.92 420.142 2614.63 416.856C2618.33 413.571 2620.4 409.598 2620.82 404.935L2621.14 404.299L2626.23 361.064C2626.86 356.401 2625.75 352.48 2622.89 349.301C2620.03 346.122 2616.27 344.532 2611.61 344.532L2585.85 344.532L2578.54 404.299L2576.32 421.784L2602.39 421.784Z" fill="#0be0de" fill-rule="evenodd" filter="url(#Filter_12)" stroke="none"/>
<path d="M640.414 875.785C767.669 868.579 877.556 800.03 945.013 699.436C889.565 735.812 824.656 758.535 754.452 762.511C535.458 774.912 348.208 601.155 336.23 374.426C331.212 279.447 357.844 190.299 406.475 117.781C288.958 194.875 214.054 333.655 222.192 487.701C234.17 714.43 421.42 888.187 640.414 875.785Z" fill="#0be0de" fill-rule="evenodd" filter="url(#Filter_13)" stroke="#0be0de" stroke-linecap="round" stroke-linejoin="round" stroke-width="5.7669"/>
</g>
</svg>
